<?xml version="1.0" encoding="UTF-8"?>
<svg id="Layer_2" data-name="Layer 2" xmlns="http://www.w3.org/2000/svg" viewBox="0 0 102.64 107.7">
  <defs>
    <style>
      .cls-1 {
        fill: #000;
      }

      .cls-1, .cls-2, .cls-3 {
        stroke-width: 0px;
      }

      .cls-2 {
        fill: #ffc20e;
      }

      .cls-3 {
        fill: #de2b2e;
      }
    </style>
  </defs>
  <g id="Layer_1-2" data-name="Layer 1">
    <g>
      <g>
        <path class="cls-2" d="M9.68,38.4c.39,1.12,1.39,2.04,1.77,3.16s.66,2.29,1.04,3.41.35,2.39.73,3.52.88,2.21,1.26,3.34.78,2.25,1.15,3.38.74,2.26,1.11,3.39.91,2.2,1.29,3.33.79,2.24,1.16,3.37.79,2.24,1.17,3.37.43,2.37.82,3.49.66,2.29,1.05,3.41,1.31,2.06,1.71,3.18.87,2.21,1.28,3.32.68,2.29,1.1,3.39c.39,1.06.95,2.09,1.39,3.21s.23,2.42.7,3.5,1.52,1.87,2.05,2.91.89,2.19,1.5,3.16,1.45,1.85,2.19,2.71c.78.91,1.46,1.87,2.37,2.55s1.98,1.27,3.07,1.65c1.07.38,2.21.81,3.44.81,1.08,0,2.16-.64,3.38-.99,1.03-.29,2.13-.59,3.27-1.17,1.08-.49,2.31-.7,3.27-1.32s1.61-1.77,2.5-2.5,1.72-1.53,2.56-2.34,1.81-1.47,2.61-2.32,1.64-1.64,2.44-2.5,1.7-1.59,2.51-2.42,1.32-1.98,2.19-2.77c.86-.75,1.87-1.34,2.78-2.04s1.87-1.31,2.79-2,1.84-1.35,2.73-2.06,1.97-1.23,2.8-2.01c.88-.81,1.48-1.93,2.32-2.77s1.75-1.64,2.57-2.51,1.5-1.87,2.3-2.76,1.51-1.85,2.3-2.75,1.97-1.44,2.77-2.34,1.34-2.01,2.15-2.89c.98-1.08,1.92-2.27,2.94-3.39,1.02-1.12,2.06-2.22,2.9-3.39,1.05-1.27,1.68-2.43,1.66-3.6-.02-1.3-.97-2.34-1.83-3.49-.77-1.02-1.48-2.23-2.54-3.1s-2.16-1.81-3.16-2.52c-1.07-.72-2.11-1.47-3.17-2.2s-2.28-1.22-3.34-1.96-1.88-1.8-2.93-2.54-2.33-1.15-3.4-1.87c-1.06-.72-1.95-1.72-3.03-2.42-1.02-.64-2.17-1.11-3.21-1.72s-1.99-1.41-3.04-2-2.19-1.05-3.25-1.63-2.18-1.04-3.25-1.61-2.31-.8-3.38-1.36-2.11-1.18-3.18-1.75c-1.13-.61-2.03-1.65-3.15-2.26s-2.32-1.1-3.45-1.71-2.14-1.43-3.27-2.03-2.39-.96-3.52-1.56-2.42-.89-3.56-1.47-2.25-1.21-3.41-1.77-2.11-1.53-3.27-2.07c-1.16-.53-2.36-.93-3.5-1.36-1.18-.44-2.31-.99-3.49-1.37s-2.4-.63-3.61-1-2.4-.56-3.62-.94c-1.22-.36-2.42-.96-3.7-1.39-1.25-.42-2.65-.4-3.91-.76-1.31-.37-2.53-.99-3.79-1.14-1.29-.16-2.45-.27-3.32-.01-1.16.35-2,1.23-2.55,2.13s-.56,2.01-.65,3.17c-.08,1.03-.44,2.17-.28,3.28s.61,2.15.91,3.16c.31,1.18.51,2.37.81,3.52s.91,2.27,1.22,3.41.46,2.38.77,3.53.68,2.31,1.01,3.46.63,2.32.97,3.47.54,2.35.9,3.5.98,2.21,1.37,3.36c.01.2-.33.2-.31.28Z"/>
        <path class="cls-1" d="M11.22,37.87c.3.77,1.39,2.01,1.76,3.12,0,0,.36,1.16.36,1.16.44,1.35,1.14,3.68,1.22,4.9.27,1.57,1,2.73,1.48,4.29.51,1.52,1.81,5.35,2.29,6.82,1.3,3.2,2.54,6.92,3.68,10.22.28.98.41,2.01.65,2.96.31.96.86,2.86,1.19,3.81.43.93,1.25,1.89,1.62,2.95.91,2.19,1.74,4.72,2.51,7.03.45,1.12,1.07,2.19,1.47,3.51.31,1.11.13,2.12.6,3.05.24.43.78.96,1.38,1.76.92,1.32,1.1,2.28,1.71,3.44.84,1.52,2.43,2.99,3.48,4.36,1.11,1.32,2.74,2.03,4.34,2.56.73.25,1.47.45,2.19.41.79-.1,1.44-.52,2.53-.85,1.68-.38,2.96-1.08,4.47-1.62.8-.26,1.45-.48,1.83-.73.61-.43,1.54-1.75,2.37-2.42,1.45-1.37,3.36-3.06,4.79-4.31,1.42-1.45,3.22-3.37,4.69-4.69,1.07-.93,1.59-2.27,2.69-3.27.22-.29,4.1-2.99,4.48-3.29,1.96-1.35,3.97-3.09,5.89-4.28.59-.41.91-.7,1.35-1.27.9-1.39,2.88-3.27,4.17-4.51,1.44-1.67,3.11-3.8,4.59-5.51.78-.87,2.16-1.69,2.74-2.31.62-.71,1.37-2.06,2.16-2.91,1.66-2.01,3.83-4.28,5.4-6.23.95-1.35,2.4-2.58.96-4.18,0,0-.7-.91-.7-.91-.79-1-1.47-2.2-2.36-2.94-1.05-.81-2.11-1.7-3.16-2.51-.73-.48-2.27-1.6-2.96-2.05-1.57-1-3.94-2.07-5.19-3.53-1.66-1.8-4.13-2.15-5.89-3.91-1.75-1.8-3.88-2.28-5.89-3.71-1.84-1.45-4.05-2.27-6.11-3.36,0,0-2.14-1.06-2.14-1.06-1.24-.61-3.13-1.07-4.4-1.91-.5-.31-2.28-1.21-2.75-1.52-1.18-.73-2.06-1.75-3.28-2.3,0,0-2.16-1.03-2.16-1.03-1.42-.65-2.86-1.8-4.14-2.47-2.12-.92-4.25-1.86-6.56-2.76-1.29-.65-2.53-1.3-3.78-1.95-1.4-.65-2.24-1.7-3.51-2.15,0,0-1.08-.42-1.08-.42-1.57-.54-3.85-1.61-5.42-2.12-2.77-.83-5.2-1.29-8.19-2.26,0,0-2.24-.89-2.24-.89l-.5-.18c-.13-.04-.25-.08-.4-.11-1.18-.27-2.3-.27-3.66-.7-1.6-.53-2.67-1.04-4.22-1.11-1.38-.1-1.76-.1-2.59.82-.39.52-.44.58-.55,1.21-.07.83-.43,3.42-.45,4.29.16,1.17.94,2.95,1.16,4.28.34,1.5.63,2.9,1.31,4.4.73,1.84.83,3.57,1.21,4.85,1,3.34,2.01,6.99,2.85,10.33.36,1.23,1.2,2.37,1.45,3.81.14.95-.73,1.97-1.44,2.17.04,0,.08-.04.11-.05,0,0,.14-.08.14-.08.73-.41,1.08-1.48.78-2.27,0,0-.32.11-.32.11h0ZM7.81,39.04c-.32-.83.08-1.92.83-2.36,0,0,.16-.09.16-.09l.08-.04c.06-.02.27-.12.09-.04-.08.05-.28.13-.55.44-.28.29-.47.9-.42,1.29l.1.5c-.2-.59-.53-1.27-.87-2.06-.69-1.44-1-3.37-1.41-4.83-.45-1.57-1.52-5.38-1.99-6.97-.61-3.07-.99-4.26-1.98-6.91-.29-1.19-.71-3.35-1.15-4.54-.26-.79-.56-1.62-.69-2.78-.09-1.2.14-2.14.24-2.85.18-1.15.12-3.24.96-4.51.21-.31.44-.7.7-.99C4.55-1.18,9.62-.03,12.97,1.31c.93.31,2.28.34,3.41.63.83.14,2.78,1.02,3.61,1.32,2.17.71,5.57,1.46,8.01,2.2,1.7.57,4.06,1.62,5.76,2.24,0,0,1.16.45,1.16.45,1.27.45,2.63,1.68,3.64,2.21.92.49,2.74,1.4,3.69,1.9,2.84,1.18,6.34,2.39,8.93,4.22,1.32.91,3.2,1.72,4.61,2.45,1.12.58,2.02,1.53,3.01,2.19.23.13,2.2,1.24,2.5,1.39,1.39.9,2.8,1.08,4.39,1.92,2.76,1.46,6.15,2.79,8.63,4.68,1.33.96,2.63,1.38,4.13,2.32,1.23.81,1.89,1.59,2.89,2.33.94.67,1.82.93,3,1.64,1.53.85,2.48,2.26,3.76,3.08,2.7,1.45,5.66,3.47,8.06,5.46,0,0,.97.78.97.78,1.45,1.06,2.45,2.62,3.42,3.95.9,1.26,1.83,2.16,2.07,4.08.13,1.93-.65,3.26-1.61,4.59-1.24,1.7-2.72,3.24-4.01,4.7-.57.63-1.82,2.11-2.37,2.72-.8.89-1.18,1.78-2.14,2.86-1.05,1.15-1.94,1.48-2.76,2.32-.47.55-1.82,2.18-2.32,2.75-.96,1.11-2.04,2.61-3.21,3.64-1.08,1.05-2.19,2.06-3.12,3.41-.93,1.37-2.82,2.39-4.02,3.28-1.94,1.49-3.92,2.9-5.88,4.31-.98.72-1.78,1.12-2.52,1.91-.6.73-1.17,1.76-1.92,2.48-1.22,1.21-2.7,2.51-3.82,3.75-1.62,1.78-3.74,3.37-5.43,5,0,0-.93.84-.93.84-.95.82-1.33,1.73-2.72,2.65-.98.61-1.88.84-2.6,1.09-1.46.61-3.11,1.28-4.55,1.63-.97.32-2.75,1.14-4.05.99-1.4-.04-2.73-.59-4-1.03-1.72-.67-3.41-1.71-4.61-3.13-1.39-1.75-2.85-3.06-3.94-5.04-.51-.89-.96-2.39-1.44-3.02-.59-.73-2.04-2.36-2.17-3.66-.19-.8-.17-1.64-.33-2.3-.3-1-.91-1.99-1.33-3.12-.84-2.44-1.5-4.65-2.52-7.1-.41-.99-1.13-1.74-1.57-2.82-.41-1.12-.95-3.06-1.32-4.21-.26-.86-.38-2.07-.63-2.9-1.15-3.36-2.3-6.8-3.62-10.12-.48-1.47-1.77-5.34-2.28-6.85-.48-1.48-1.37-3.19-1.59-4.78-.17-1.6-.66-3-1.09-4.4-.15-.49-.37-1.38-.73-1.86-.35-.58-.96-1.28-1.38-2.41l-.32.11h0Z"/>
      </g>
      <g>
        <path class="cls-3" d="M63.75,44.05c-.76-.98-1.45-1.97-2.34-2.78s-1.68-1.91-2.7-2.53-2.41-.71-3.54-1.08c-1.19-.39-2.32-1.03-3.52-1.07-.06,0-.07.12-.13.12-1.38-.04-2.6.53-3.84.87-1.31.36-2.5.77-3.62,1.42-1.19.69-2.31,1.38-3.23,2.24-.87.79-1.83,1.54-2.53,2.5s-.98,2.15-1.5,3.23-1.28,2.03-1.62,3.17-.47,2.33-.62,3.51-.35,2.37-.32,3.55.61,2.3.84,3.47.43,2.3.86,3.4.63,2.33,1.28,3.34c.65,1.07,1.53,1.94,2.31,2.81.83.92,1.76,1.7,2.7,2.4.99.74,2.09,1.2,3.17,1.69,1.11.51,2.22.88,3.39,1.13s2.36.68,3.55.67c1.21-.01,2.37-.44,3.54-.73,1.17-.28,2.37-.48,3.46-1.03s1.97-1.34,2.91-2.13,1.52-1.77,2.27-2.75c.7-.93,1.59-1.76,2.13-2.89.52-1.01,1.18-2.01,1.5-3.12s.27-2.29.4-3.44.49-2.29.43-3.45-.48-2.27-.71-3.4-.44-2.27-.83-3.35-.71-2.24-1.26-3.24-1.7-1.63-2.42-2.53Z"/>
        <path class="cls-1" d="M63.98,47.01c-1.09-1.31-2.53-3.49-3.65-4.51-1.04-.96-1.76-1.91-2.41-2.3-.55-.39-1.59-.5-3-.88-1.4-.44-2.43-.99-3.15-1.04-.46-.04.01.06.51-.13.36-.15.54-.35.64-.47.18-.23.17-.27.15-.22-.05.05-.05.23-.58.64-.62.45-1.27.19-1.93.39-1.48.44-3.34.93-4.8,1.56-1.94.9-3.83,2.4-5.33,3.89-1.33,1.19-1.42,2.74-2.31,4.3-.94,1.5-1.48,2.69-1.64,4.44-.14,1.47-.58,3.46-.4,4.85.45,1.5.94,3.52,1.28,5.06.15.55.41,1.11.58,1.65.29.87.41,1.47.8,2.13.53.89,1.35,1.71,2.07,2.51,1.28,1.37,2.69,2.54,4.44,3.3,2.09,1.05,4.21,1.52,6.38,1.96,1.54.24,3.05-.56,4.59-.83,1.62-.3,2.76-.85,3.98-1.94,1.12-.84,1.84-1.85,2.67-3.02.96-1.19,1.81-2.11,2.42-3.46.91-1.46,1.17-2.6,1.2-4.32.03-1.12.42-2.53.49-3.54-.06-1.47-.96-4.79-1.35-6.33-.48-1.17-.72-2.8-1.66-3.67h0ZM68.92,48.06c.6,1.54,1.11,3.67,1.36,5.04.22,1.02.75,2.37.68,4.1-.07,1.4-.42,2.34-.48,3.62-.06,1.27-.18,2.93-.77,4.18-1.16,2.51-1.94,3.76-3.63,5.73-.75,1.03-1.57,2.24-2.62,3.09-1.73,1.6-4,2.95-6.36,3.3-1.29.26-2.28.65-3.67.85-1.39.25-3.05-.11-4.31-.47-4.24-.92-8.2-2.86-11.05-6.13-.86-.96-1.79-1.95-2.47-3.1-.63-1.03-.92-2.28-1.25-3.29-.67-1.56-.81-3.32-1.27-4.87-.43-1.1-.76-3.05-.56-4.22.07-1.15.35-2.57.48-3.7.16-1.92,1.02-4.06,2.09-5.62.59-1.04.82-2.18,1.53-3.34.79-1.28,1.82-2.1,2.83-3,2.19-1.99,4.85-3.5,7.73-4.24,1.31-.37,2.69-.95,4.15-.95.07,0,.2,0,.27,0-.17-.03-.75.09-.95.27-.5.38-.47.53-.51.55,0,.02,0-.06.21-.32,1.39-1.6,4.42.36,5.52.59.89.29,2.35.35,3.86,1.29,3.76,2.93,6.36,7.13,9.21,10.64h0Z"/>
      </g>
    </g>
  </g>
</svg>