<?xml version="1.0" encoding="UTF-8"?>
<svg id="Layer_2" data-name="Layer 2" xmlns="http://www.w3.org/2000/svg" viewBox="0 0 106.7 114.76">
  <defs>
    <style>
      .cls-1 {
        fill: #000;
      }

      .cls-1, .cls-2, .cls-3 {
        stroke-width: 0px;
      }

      .cls-2 {
        fill: #ffc20e;
      }

      .cls-3 {
        fill: #de2b2e;
      }
    </style>
  </defs>
  <g id="Layer_1-2" data-name="Layer 1">
    <g>
      <g>
        <path class="cls-3" d="M5.4,72.47c.17,1.2.4,2.37.64,3.51s.89,2.24,1.22,3.36.43,2.37.84,3.47,1.11,2.12,1.61,3.18,1.11,2.09,1.69,3.11,1.09,2.11,1.76,3.08,1.36,1.95,2.1,2.86,1.58,1.76,2.4,2.61,1.73,1.61,2.61,2.39,1.63,1.75,2.58,2.46,1.82,1.56,2.82,2.19,2.18.98,3.23,1.55,2.05,1.22,3.13,1.71,2.19.92,3.3,1.34c1.11.41,2.28.67,3.42,1.01s2.34.37,3.5.64,2.24.86,3.41,1.06,2.35.37,3.53.5,2.35.52,3.54.57,2.38-.53,3.57-.55,2.39.4,3.58.31,2.35-.41,3.52-.58,2.31-.56,3.47-.79,2.32-.46,3.46-.77,2.27-.68,3.38-1.07c1.13-.39,2.16-.96,3.25-1.43s2.22-.83,3.27-1.37,2-1.25,3.01-1.88c.99-.6,2.17-.93,3.08-1.66s1.84-1.44,2.67-2.28,1.26-1.97,1.99-2.89,1.82-1.55,2.46-2.53,1.17-2.03,1.73-3.06.85-2.18,1.32-3.25,1.21-2.03,1.6-3.13c.43-1.17.48-2.48.86-3.68s.67-2.41.99-3.62.64-2.42.93-3.64.54-2.44.79-3.67.88-2.38,1.12-3.61-.18-2.58.04-3.81c.19-1.15.38-2.3.58-3.43s.88-2.23,1.06-3.34c.19-1.19-.05-2.39.06-3.5.13-1.22.31-2.35.29-3.43-.03-1.25-.09-2.37-.42-3.39-.45-1.14-.77-2.25-1.4-3.11-.7-.95-1.52-1.8-2.41-2.47s-1.91-1.35-2.96-1.79c-1.03-.43-2.29-.24-3.42-.5s-2.16-.68-3.3-.82-2.26-.38-3.38-.46-2.29-.32-3.39-.39c-1.18-.02-2.41.44-3.66.48-1.19.04-2.41.08-3.65.17-1.2.09-2.38.44-3.61.57s-2.41.2-3.63.36-2.48-.21-3.7-.02-2.31.93-3.52,1.14c-1.2.21-2.49-.07-3.69.17-1.2.23-2.32.87-3.51,1.13s-2.37.61-3.55.88-2.42.41-3.59.7-2.36.71-3.52,1.01-2.4.54-3.56.85-2.39.63-3.53.95c-1.21.34-2.49.33-3.61.67-1.22.36-2.4.66-3.51,1.01-1.16.32-2.17,1.28-3.4,1.75-1.15.44-2.34.84-3.53,1.34-1.15.49-2.24,1.17-3.4,1.66-1.17.5-2.45.74-3.61,1.18s-2.42.87-3.6,1.18c-1.33.3-2.75.23-4.12.09s-2.73-.4-4,.12c-.89.67-1.67,1.73-1.81,3.11-.1,1.07-.02,2.37.15,3.66.16,1.15.46,2.37.73,3.56s1.04,2.29,1.31,3.4c.32,1.34.29,2.61.41,3.57,0,.16-.02.16,0,.3Z"/>
        <path class="cls-1" d="M7.02,72.23c.21,1.04.5,2.97.76,3.89.28.85.89,2.04,1.14,3.06.25.96.41,2.15.69,2.96.37,1.05,2.28,4.29,2.82,5.38.56,1.01,1.41,2.65,2,3.57.73.96,1.64,2.34,2.43,3.23.81.87,1.93,2.16,2.83,2.92.59.58,1.77,1.57,2.34,2.16.72.74,1.32,1.41,2.17,2.03.87.69,2.09,1.81,3.11,2.25,1.81.64,4.07,2.14,5.63,2.83,1.08.42,2.65,1.12,3.75,1.46,2.01.66,3.92.97,6.1,1.36,1.6.41,2.33.97,3.91,1.1,0,0,2.03.28,2.03.28,1.28.1,2.89.57,4.06.65.66,0,1.93-.39,2.83-.51,1.49-.24,2.95.36,4.26.25,1.92-.28,4.04-.66,5.98-1.19,1.54-.39,3.56-.71,5.05-1.23,2.62-.69,5.12-2.07,7.67-3.03,1.62-.64,2.88-1.81,4.47-2.61.43-.23,1.39-.62,1.78-.87,1.16-.9,2.48-1.78,3.34-2.98.32-.48.65-1.12,1.16-1.84.62-.93,1.64-1.65,2.36-2.41.35-.32,1.12-1.96,1.41-2.39.71-1.18,1.09-2.28,1.6-3.66.52-1.35,1.41-2.41,1.78-3.63.24-.84.38-2.08.66-3.07.2-.66.63-2.37.83-3.05.72-2.32,1.37-5.76,1.92-8.16.32-1.37.99-2.59,1.1-3.73,0-.82-.2-2.3-.02-3.37,0,0,.18-1.07.18-1.07.13-.83.38-2.5.64-3.35.28-.95.75-1.72.85-2.65.06-.82-.09-2.16.02-3.19.05-.89.3-2.15.27-2.97-.02-1.01-.04-2.06-.33-3.01-.3-.71-.59-1.69-.89-2.2-1.1-1.79-2.95-3.16-4.81-4.01-.68-.25-1.26-.12-2.36-.27-1.39-.2-2.13-.55-3.26-.8-1.07-.18-2.82-.46-3.9-.55-1.04-.07-2.24-.29-3.18-.37-.63-.03-1.86.26-2.71.39-1.3.13-3.06.18-4.35.25-.55.03-2.38.36-2.96.47-1.36.14-2.94.35-4.25.46-1.48.22-2.82-.21-3.97.04-.43.11-1.02.38-1.78.67-1.29.63-3.47.52-4.73.54-1.22.14-2.31.82-3.75,1.15-1.29.3-2.85.72-4.16,1.01-.67.12-2.41.42-3.04.58-2.29.7-4.78,1.33-7.11,1.87-1.36.36-2.76.77-4.22,1.11-1.19.24-1.94.22-2.94.51-.7.18-2.35.69-3.06.87-1.46.38-2.05,1.25-3.63,1.81-1.04.42-2.79,1.01-3.81,1.48-1.8.98-4.09,2.01-6.11,2.49,0,0-4.13,1.36-4.13,1.36-1.71.49-3.4.37-4.87.24-1.2-.1-2.29-.37-3.25-.03,0,0,.45-.26.45-.26-.65.49-1.03,1.16-1.05,1.95-.15,2.15.48,4.52.92,6.61.15.58.81,1.72,1.08,2.59.47,1.48.51,3.31.62,4.69,0,0,0,.14,0,.14,0,0,0-.12,0-.18v-.08s-.35.05-.35.05h0ZM3.45,72.76c-.02-.14-.04-.44-.03-.55,0-.06,0-.02,0,0v.03s.02.19.02.19c-.16-1.33-.11-2.13-.35-3.24-.28-1.09-.77-1.66-1.2-3.02-.96-4.24-2.69-10.45,1.97-13.14,2.84-1.18,5.98.43,8.64-.39,1.37-.48,4.58-1.52,5.91-1.9,1.57-.51,3.03-1.55,4.66-2.13l1.01-.39,2.02-.77c1.04-.43,2.69-1.7,3.93-1.92.7-.23,2.37-.66,3.04-.87.99-.33,2.44-.44,3.3-.61,2.53-.66,5.51-1.44,8.09-2.07.68-.2,2.42-.69,3.07-.88,1.67-.37,3.54-.64,5.21-1.1,0,0,2.04-.5,2.04-.5,1.3-.31,2.72-1.16,4.34-1.23,1.56-.12,2.33.22,3.63-.28.56-.2,1.25-.54,2.18-.79,1.6-.47,3.15.02,4.45-.12,1.09-.1,3.14-.29,4.16-.43.7-.08,2.58-.52,3.3-.5,1.53-.09,3.54-.06,5.04-.37,1.56-.47,4.07-.07,5.75.14.96.03,2.35.33,3.27.44,1.63.16,3.25.86,4.09.95.64.07,2.03.08,2.98.4,2.91,1.18,5.51,3.2,7.09,5.91,1.57,2.94,1.91,6.16,1.45,9.33-.3,1.47,0,2.53-.15,4.18-.12,1.55-.96,2.72-1.2,4.2-.14,1.02-.58,2.84-.57,3.79.01.57.12,1.31.08,2.26-.06,1.71-.88,3.01-1.2,4.38-.52,2.49-1.31,5.88-1.99,8.3-1.02,2.97-1.02,5.87-2.57,8.49-.71,1.08-1.19,2.49-1.62,3.63-.17.65-.76,1.48-1.07,2.1-.7,1.25-1.58,3-2.78,3.89-1.27,1.04-1.42,1.56-2.31,2.95-.84,1.28-2.27,2.36-3.44,3.29-.8.7-2.09,1.32-3.07,1.75-1.51.83-3,2.04-4.67,2.68-2.72,1.02-5.16,2.38-8.06,3.14-1.54.53-3.64.87-5.22,1.26-2.13.56-4.24.94-6.47,1.25-1.41.18-2.93-.36-4.16-.27-1.12.15-1.95.57-3.41.52-1.68-.12-2.7-.51-4.29-.68-1.34-.22-3.27-.35-4.52-.84-1.76-.75-3.08-.83-4.94-1.17-1.4-.39-2.87-.74-4.28-1.27-.67-.25-2.35-.97-3.03-1.23-1.44-.61-2.72-1.5-3.77-2.02-.87-.42-2.11-.85-3.04-1.46-1.16-.78-2.43-1.89-3.53-2.78-.8-.72-1.45-1.51-2.26-2.22-.51-.48-1.92-1.76-2.42-2.23-.58-.53-1.67-1.86-2.23-2.42-2.79-3.14-4.77-7.39-6.78-11.06-1.2-1.78-1.43-4.24-2.05-6.2-.94-1.86-1.33-4.44-1.68-6.47,0,0-.34.05-.34.05h0Z"/>
      </g>
      <g>
        <path class="cls-2" d="M23.23,10.22c-1.03.67-1.7,1.84-2.65,2.55s-2.21,1.14-3.11,1.92-1.82,1.65-2.66,2.49c-.87.87-1.53,1.91-2.31,2.82s-1.62,1.82-2.32,2.79-1.15,2.14-1.77,3.17-1.44,1.97-1.98,3.04-1.28,2.1-1.72,3.22-.82,2.31-1.16,3.46-.09,2.47-.33,3.66-.72,2.32-.86,3.52-.32,2.4-.36,3.61.19,2.41.25,3.62.3,2.38.46,3.58-.23,2.49.03,3.68.94,2.26,1.28,3.43.35,2.45.78,3.58,1.44,2.01,1.97,3.11,1.05,2.16,1.65,3.21,1.08,2.17,1.76,3.17,1.26,2.07,2.02,3.02,1.75,1.68,2.58,2.57,1.5,1.91,2.39,2.74,1.69,1.75,2.64,2.52,1.98,1.4,2.98,2.1,2.09,1.22,3.13,1.85c1.03.62,2.08,1.21,3.17,1.77s2.12,1.17,3.24,1.65,2.19,1.04,3.34,1.46,2.44.26,3.62.6,2.26.79,3.46,1.07,2.29.83,3.5,1.04,2.45-.14,3.66,0c1.19.14,2.36.55,3.58.62,1.19.07,2.4-.06,3.63-.05s2.4.22,3.63.17,2.38-.45,3.6-.55,2.46.37,3.68.22c1.2-.21,2.37-.56,3.51-.85s2.24-.94,3.35-1.31,2.26-.79,3.35-1.24,2.12-1.1,3.17-1.65c1.07-.56,2.21-.95,3.21-1.58s1.9-1.45,2.84-2.17,2.21-1.1,3.09-1.9,1.56-1.85,2.37-2.72,1.58-1.8,2.31-2.74,1.27-2.03,1.92-3.03,1.16-2.07,1.73-3.12,1.06-2.11,1.55-3.21,1.09-2.12,1.49-3.25,1.13-2.15,1.45-3.31.11-2.43.34-3.6.65-2.3.8-3.49.16-2.38.23-3.57.09-2.38.08-3.58-.19-2.37-.28-3.56.03-2.4-.14-3.58-.63-2.3-.88-3.48-.13-2.42-.46-3.58-1.09-2.16-1.49-3.28-.59-2.32-1.06-3.42-1.19-2.07-1.74-3.13-1.07-2.12-1.7-3.14-1.03-2.17-1.73-3.15-1.39-1.95-2.16-2.87-1.55-1.82-2.38-2.69-1.61-1.77-2.5-2.59c-.82-.77-2.01-1.2-3.08-1.88-.96-.62-1.86-1.46-2.98-2.01-1.05-.51-2.25-.75-3.39-1.2-1.1-.43-2.15-1.03-3.31-1.42s-2.25-.85-3.41-1.18-2.4-.33-3.56-.61-2.27-.94-3.46-1.15-2.42-.26-3.61-.41-2.41-.25-3.61-.32-2.42.24-3.63.23-2.42-.27-3.62-.21c-1.21.07-2.38.42-3.58.56s-2.37.38-3.56.6-2.39.32-3.56.61c-1.17.29-2.34.58-3.49.95s-2.26.82-3.39,1.26c-1.12.44-2.19.98-3.28,1.49s-2.29.81-3.34,1.4-2.22,1-3.24,1.66Z"/>
        <path class="cls-1" d="M24.3,11.88c-.94.77-2.41,2.72-3.82,3.27-1.55.61-2.38,1.73-3.47,2.67-1.22,1.05-2.01,2.24-3.09,3.55-.49.58-1.78,2.12-2.22,2.68-.66,1-1,1.99-1.76,3.17-1.29,1.76-2.1,3.31-3.1,5.1-.36.58-.88,2.5-1.14,3.16-.53,1.24-.31,1.86-.41,3.15-.04,1.28-.64,2.84-.87,3.89-.19,1.05-.29,2.75-.43,3.93,0,1.57.23,3.49.42,5.15.06.44.23,1.46.28,1.88.15,1.01-.11,2.59-.04,3.17.17,1.19,1.29,3.02,1.49,4.4.33,1.71.25,2.55,1.29,3.76.51.63,1.09,1.61,1.47,2.4,1.09,2,2.16,4.41,3.46,6.28,1.13,2.26,3,3.47,4.62,5.4.84,1.09,1.47,1.74,2.35,2.59.8.75,1.56,1.64,2.49,2.23,2.14,1.61,5.8,3.6,8.18,4.94,1.95.98,4.39,2.31,6.39,3.04.72.21,2.55.25,3.58.59.72.29,1.64.49,2.35.77,1.13.27,2.64.78,3.52,1.08,1.59.53,2.73-.1,4.6.21.98.15,1.78.38,2.46.49,1.19.24,2.76,0,4.67.06,1.29.06,2.3.23,3.42.15,1.32-.15,2.23-.53,3.88-.53,1.6,0,2.08.47,3.32.15,0,0,1.14-.28,1.14-.28.59-.15,1.58-.35,2.15-.54,1.04-.4,3.29-1.38,4.52-1.77,1.61-.54,2.74-1.11,4.23-1.96,1.48-.82,2.85-1.16,4.11-2.15.59-.43,1.2-.96,1.91-1.51,1.16-.91,2.17-1.15,3.05-1.86,1.44-1.49,3.12-3.68,4.56-5.32,2.51-3.66,4.55-7.95,6.36-11.99.4-1.16,1.36-2.55,1.5-3.61.08-.58.04-1.4.14-2.42.18-1.65.93-3.13.94-4.83.22-3.07.39-6.44-.02-9.49-.13-1.73.11-2.99-.36-4.56-.19-.73-.48-1.52-.67-2.52-.25-1.41-.1-2.31-.43-3.41-.13-.49-.73-1.5-.97-2.01-.98-1.91-.92-3.86-2.12-5.61-.73-1.18-1.71-3.08-2.38-4.31-.35-.54-.91-1.72-1.2-2.28-1.88-3.38-4.73-6.24-7.39-9.02-.5-.54-1.01-.71-1.67-1.1-1.36-.61-2.85-2-4.08-2.64-1.27-.56-3.26-1.02-4.57-1.72-1.25-.74-3.06-1.14-4.36-1.67-1.62-.67-2.99-.5-4.81-1.03-.96-.29-1.71-.66-2.34-.86-1.85-.5-5.3-.6-7.53-.87-.95-.08-1.83.13-2.83.2-1.23.12-2.78-.16-3.84-.19-.92-.09-2.34.33-3.35.47-.32.03-.95.15-1.27.2-2.29.49-4.82.62-7.05,1.27,0,0-2.31.62-2.31.62-3,.89-6.12,2.59-9.01,3.63-1.36.61-2.92,1.37-4.12,2.04,0,0,.19.29.19.29h0ZM22.35,8.85c2.24-1.34,4.6-2.29,6.88-3.22,2.97-1.41,6.27-2.77,9.48-3.53,2.32-.68,5.09-.89,7.47-1.37.65-.11,1.67-.26,2.33-.4,1.91-.55,4.41-.09,6.32-.11,1.23-.13,2.65-.34,3.93-.15,1.84.18,4.42.36,6.25.61,1.18.12,2.8.88,3.74,1.17,1.13.35,2.95.32,4.2.81.47.15,2.47.86,2.97,1.02,1.66.53,2.96,1.38,4.54,1.84,1.51.35,3.71,1.4,4.87,2.43,1.15.92,2.47,1.36,3.69,2.26,1.47,1.32,2.75,2.74,4.07,4.21,1.09,1.02,2.26,2.78,3.2,3.96.5.62,1.11,1.58,1.46,2.32.23.54.82,1.55,1.1,2.07.4.68,1.39,2.6,1.78,3.26,0,0,.62,1.04.62,1.04.9,1.29,1.51,3.48,1.9,4.94.19.59.62,1.42.92,1.97.92,1.42,1,3.8,1.16,5.25.11.62.37,1.37.61,2.23.53,1.57.4,3.68.49,5.21.33,2.45.32,5.17.2,7.62-.12,1.56-.11,3.7-.58,5.22,0,0-.31,1.18-.31,1.18-.34,1.2-.16,1.93-.33,3.46-.28,2.07-1.35,3.26-1.93,5.03-1.81,3.9-3.49,7.52-5.8,11.16-1.37,2.11-3.2,3.93-4.8,5.98-.93,1.38-3.1,2.29-4.26,3.08-1.25,1.01-2.82,2.36-4.39,3.01-1.69.72-2.73,1.37-4.35,2.21-1.43.68-3.27,1.26-4.71,1.83-.65.26-1.41.66-2.37.99-1.18.37-2.68.67-3.88.97-1.03.37-3.23-.05-4.01-.09-.83-.06-2.33.46-3.41.53-1.32.15-2.79-.08-3.95-.12-1.37-.08-3.1.25-5.16-.09-.93-.16-1.72-.38-2.36-.47-.92-.18-2.42.19-3.63.01-1.33-.12-2.76-.81-3.8-1.06-1.13-.24-2.5-.76-3.61-1.09-1.22-.34-2.07-.12-3.69-.62-2.44-.85-4.69-2.13-6.96-3.25-2.58-1.44-6.31-3.43-8.69-5.2-1.07-.7-2.12-1.75-3.02-2.66-.88-.84-2-2.01-2.62-2.86-1.05-1.34-2.35-2.12-3.45-3.62-.85-1.11-1.39-2.16-2.12-3.22-1.15-1.91-2.34-4.42-3.38-6.38-.71-1.14-1.87-2.39-2.19-3.81-.48-1.88-.37-2.91-1.18-4.48-.33-.78-.77-1.7-.87-3-.07-1.16.1-2.01.08-2.6-.02-.59-.2-1.56-.28-2.15-.21-1.75-.35-3.27-.47-5.15-.04-.78.15-1.87.2-2.65.03-1.48.55-3.75.99-5.13.3-1.21.04-2.26.31-3.57.24-1.13.93-2.79,1.24-3.85.83-2.18,2.58-4.92,3.85-6.74.58-.88,1.11-2.27,1.83-3.28.54-.75,1.9-2.27,2.48-3.01.96-1.19,2.11-2.79,3.37-3.85,0,0,1.87-1.75,1.87-1.75,1.23-1.04,2.22-1.3,3.25-2.03.95-.77,1.36-1.69,2.77-2.62,0,0,.19.29.19.29h0Z"/>
      </g>
      <g>
        <path class="cls-1" d="M23.32,41.19c.13-.43.22-.94.41-1.33.16-.29.33-.58.33-.93,0-.16-.03-.32-.05-.48-.05-.53.18-.98.28-1.48.57-.63.55-.71.49-1.56.37-1.02.83-1.25.56-2.57-.13-.61.5-.65.65-1.03.12-1.69,1.11-1.38.62-2.99.08-.73.58-1.25.91-1.88.61-1.17.86-2.58.69-3.93-.09-.48.36-.51.57-.84.11-.58.24-1.13.36-1.73.14-.57.53-.94.46-1.61-.35-1.1.42-1.7,1.3-2.08.38-.28.28-.88.92-.82,2.3-.1,1.82-.19,3.36,1.65.61,1.09,1.39.94,1.57,1.57.02.51.17,1.03.43,1.48.39.49.5,1.13.94,1.59.46.57,1.18.86,1.58,1.47.19.44.64.73.8,1.19.11.58.49.69.9,1,.22.27.25.64.49.9.43.57.56,1.33,1,1.89,1.29.73.61.85,1.38,1.82.26.33.4.74.69,1.04.19.19.42.36.56.59.23.46.69.87,1.22.97.37-.07.49-.63.58-.95.11-.91-.27-1.89-.05-2.77.08-.31.01-.64.1-.95.07-.29.28-.54.33-.84-.02-.51.01-.99.14-1.48.05-.42,0-.91.23-1.27.53-.72-.05-1.68.09-2.52.03-.29.19-.52.3-.77.15-.34.08-.74.18-1.1.08-.3.31-.53.37-.85.08-.52-.31-1.16-.08-1.64.27-.56.39-1.26.42-1.87-.06-.41.35-.55.63-.74.41-.29.91-.49,1.45-.43.48-.07,1.29-.39,1.47.31-.11,1.01,1.31.98,1.16,2.29.01.74.82,1.58.3,2.22-.27.34-.24.76-.24,1.17-.06.3-.12.56-.16.87-.02.52,0,1.09-.06,1.59-.16.56-.27,1.11-.35,1.69-.36,1.13.06,2.44-.39,3.53-.34.78-.72,1.68-.66,2.57.2.5-.17.83-.07,1.31.12.45-.19.76-.27,1.18-.02.52-.3.95-.26,1.49.2.73-.25,1.3-.44,1.92-.03.26-.12.49-.19.74-.04.24.06.47.1.7.23,1.29-.82,1.41-.96,2.56-.7,1.34-.79.88-1.98,1.43-1.34.4-2.46-1.26-3.58-1.85-.38-.34-.49-.82-.68-1.27-.23-.63-.77-1.1-1.24-1.61-.35-.34-.24-.87-.45-1.26-.56-.63-1.13-1.23-1.67-1.88-.56-.41-.52-1.1-.91-1.6-.89-.98-1.78-2.02-2.36-3.21-.51-.62-.78-1.38-1.17-2.04-.59-.74-1.34-1.38-1.97-2.1-.21-.45-.41-.76-.79-.36-.4.64-.49,1.49-.52,2.26-.13.58-.29,1.13-.34,1.71-.22.56-.87.88-.85,1.55.12.84-.5,1.32-.79,2.01-.28.49-.26,1.02-.24,1.58-.18.45-.32.88-.33,1.4-.08.51-.5.86-.68,1.32-.1.24-.07.52-.16.77-.1.28-.39.49-.53.8-.23.97-.25,2.07-.75,2.95-.4.52-.46,1.2-.87,1.72-.35.78-2.07,1.32-3.01,1.1-.24,0-.52.04-.68-.21-.9-1.46-1.14-1.4-.58-3.06v-.03Z"/>
        <path class="cls-1" d="M48.2,84.58c-.45-.18-.98-.08-1.39-.33-.48-.57-1-1.2-1.54-1.74-.22-.24-.28-.54-.19-.83.1-.37.04-.74.12-1.12.11-.43.47-.81.37-1.28-.03-.54.01-1.05-.22-1.55-.14-.41.03-.83-.02-1.25-.1-.39.03-.78.12-1.14.05-.59-.22-1.18-.24-1.78-.18-.82-.32-1.62-.5-2.42-.18-.41.12-.8-.05-1.2-.02-.05-.03-.11-.04-.16-.05-.86-.51-.56-1.17-.49-.82-.03-1.64-.18-2.44-.18-.27.06-.46.38-.68.56-.41.35-.75-.19-1.13-.28-.23-.05-.5.05-.74.06-.47-.05-.8.03-1.28.11-.51-.05-1.08-.01-1.56-.02-.99-.34-.69.05-1.43.27-.26,0-.46-.21-.72-.22-.31,0-.06,1.13-.25,1.36-.12.14-.14.34-.2.5-.09.26-.4.48-.5.77-.12.27-.06.59-.2.85-.12.25-.41.43-.55.69-.22.42-.31.94-.48,1.37-.3.53-.59,1.1-.81,1.69-.29.5-.57.18-.95.69-.34.55-1.11.71-1.72.86-.53,0-.88-.55-1.13-.92-.44-1.09-.32-2.4.14-3.45.08-.28.11-.56.19-.84.33-.67.73-1.44.73-2.2,0-.22.02-.39.08-.61.17-.82.89-1.76.16-2.51-.17-.2-.33-.41-.4-.65-.11-.55-.25-1.52.39-1.81.12-.06.27-.09.39-.15.3-.12.41-.44.63-.55.45-.18,1.03.24,1.4-.19.49-.5.52-1.27.77-1.87.18-.48.58-.83.82-1.28.22-.38.27-.86.5-1.25.16-.3.46-.52.58-.84.11-.27.2-.49.43-.73.31-.29.21-.78.48-1.08.37-.28,1.01-.46,1.13-.95.17-1.44.19-.92.97-1.96.34-.88.7-.54,1.25-1,.14-.15.26-.42.41-.52.25-.18.51.05.8-.17.26-.23.53-.47.92-.49.39,0,.4-.25.56-.48.37-.3.9-.39,1.33-.6.62-.27,1.24-.7,1.95-.41.44.22.99.1,1.39.38.25.19.29.56.57.8.27.24.67.38.75.76.04.68.5,1.17.92,1.7.21.36.26.8.52,1.14.14.17.28.35.34.56.19.46-.23.93-.09,1.36.1.22.52.4.61.67.06.18.03.37.01.56-.03.38.09.7.09,1.05,0,.33-.04.67.07.99.22.44.27.96.48,1.38.31.42.3.94.47,1.41.17.43.75.32,1.1.52.51.34.95.79,1.41,1.2.33.36.44.91.68,1.3.1.16.24.31.28.48.06.47-.52.69-.81.97-.66.89-.79.87-1.93.92-.35.05-.26.29-.2.52.06.22.03.49.15.71.1.2.24.4.22.64-.17.77-.04,1.07.27,1.75.04.2-.07.38-.08.57-.02.28.25.53.37.87.16.41.06.85.1,1.27.03.42.28.84.32,1.26.05.52-.28,1.01-.29,1.52-.08.56.05,1.16.16,1.73,0,.38-.37.69-.32,1.08.04.29.27.49.28.79-.06.64-.55,1.07-1.06,1.5-1.09.7-.22,1.8-1.82,1.33h-.03ZM42.76,64.54c2.02.22.62-2.24.32-3.12-.29-.55-.49-1.14-.65-1.75-.05-.25-.02-.51-.06-.76-.05-.28-.16-.54-.21-.81-.04-.38-.09-.76-.23-1.11-.08-.27-.24-.54-.59-.52-.81.03-.8.54-1.09,1.06-.12.16-.28.29-.43.43-.7.69-1.18,1.56-1.87,2.26-.31.28-.21.73-.35,1.06-.31.39-.67.75-1.03,1.1-.23.21-.35.5-.54.73-.15.18-.38.32-.43.5-.05.13-.05.27-.05.43.02.36-.09.82.52.7.55-.12,1.07-.31,1.59-.5.27-.06.51.05.82.02.13,0,.26-.03.38-.04.4-.02.67.28,1.03.4.42.14.95.18,1.36-.02.24-.11.47-.34.75-.34.25,0,.46.19.72.26h.03Z"/>
        <path class="cls-1" d="M62.92,61.47c-.16.55.3,1.02.23,1.57-.2.97,0,2.17-.14,3.19-.54,1.02.11,1.99-.05,3.13.12.58.27,1.05.09,1.66-.06.39.18.63.2.95-.19.82,0,1.77,0,2.59.07.78.07,1.56-.01,2.37.12.53.79.82.57,1.45-.11.39-.36.78-.26,1.19.18.51-.06.93-.39,1.32-.32.4-.58.81-1.03.93-.99.35-1.82.14-2.38-.75-.66-.51-1.02-1.18-1.19-2.04-.22-.47-.12-.97,0-1.48.01-.26-.13-.53-.16-.79-.05-.56.06-1.12-.06-1.67-.05-.67-.04-1.35-.34-1.91-.07-.43.2-.92.05-1.34-.21-1.06.15-2.31-.3-3.28-.17-.35.11-.75.23-1.05,0-.68-.45-1.3-.15-2.02.66-.99.36-1.69.49-2.63.08-.64.24-1.29,0-1.86-.11-.23-.45-.37-.41-.58.03-.17.22-.32.3-.48.25-.51-.02-1.14-.07-1.62.35-.59.6-.36.3-1.06-.05-.22.2-.35.34-.52.35-.62.16-1.45.87-1.96.53-.31.86-.92,1.51-1.01,1.21-.31,2.61-.61,3.66-.03,1.56.39,1.7,1.56,2.98,2.13.9.23,1.19,1.01,1.65,1.64.39.46.94.82,1.31,1.3.25.2.58.24.65.55.1.43.31.79.36,1.26.11.34.4.62.65.89.45.5.7,1.19,1.12,1.74.23.27.62.4.88.64.24.21.45.54.63.55.58,0,.13-1.33.4-1.77.24-.99-.84-1.73.11-2.64.46-.33.43-.82.43-1.27.08-1.18.81-2.32.79-3.44-.42-.78.1-1.52.19-2.27-.05-.3.04-.55.18-.83.15-.29.27-.61.26-.92-.05-.28.07-.55.4-.7.63-.34,1.28-.63,2.1-.53.45,0,.95,0,1.32.24.37.3.68.58.98.91.1.47.39.88.61,1.33.13.5-.81.73-.71,1.24.03.22.28.4.26.61-.21.43,0,.86-.02,1.33-.03.28-.26.52-.26.8-.01.25.16.52.1.8-.24.5-.05,1.06-.25,1.6-.13.92-.25,1.85.02,2.85.3.56.53.67.18,1.21-.87,1.58-.32,1.37-.4,2.87-.21.67-.53.88-.21,1.66.08.32-.17.54-.32.8-.25.64-.21,1.52-.13,2.23-.11,1.46-2,1.74-1.7,3.64-.16.56-.84.57-1.33.88-.42.26-.82.59-1.34.63-.76,0-1.47-.12-2.21-.18-.74-.34-1.31-1.05-1.48-1.84-.27-.71-.94-1.18-1.21-1.88-.63-.89-1.73-1.66-1.78-2.76.15-1.44-1.5-2.19-2.03-3.3-.18-.43-.85-.57-.83-1.06.2-.78-.34-1.36-.7-1.98-.45-.81-1.2-1.29-1.46-2.13-.24-.53-1.09-.61-1.18-1.24-.39-.93-.79,1.91-.93,2.11v.03Z"/>
        <path class="cls-1" d="M64.29,17.85c.19.75.11,1.54.53,2.21.14,1.08,0,2.22.11,3.32.11.61.08,1.18.22,1.75-.17.51.03.97.06,1.49-.07.56.17,1.16.21,1.71.01.23-.06.61.2.71.4.14.77-.36,1.09-.44.81-.04,1.59.27,2.42,0,1.25-.8,2.52.19,3.84-.06.92-.15,1.25-.29.82-1.17-.03-.87-.14-1.78-.39-2.64-.57-1.01-.47-1.43-.51-2.52-.02-.83-.1-1.6-.33-2.41-.62-1.06.06-2.33-.42-3.45-.27-.47.1-.8.35-1.24.14-.33.44-.6.74-.79.32-.33.68-.47,1.19-.47.86-.15,1.51-.07,1.77.8.4.4.71.82.84,1.37.16.3.23.57.19.91-.03.76.93,1.29.84,2.07,0,.28-.14.55-.15.83-.02.32.18.6.08.89-.06.2-.14.41-.09.62.07.34.33.63.53.9.23.44.57.88.83,1.32.1.29-.13.64-.1.99.01.28.19.53.22.8-.15.69-.29,1.42.32,1.94.22.29.16.63.17,1.02.18.88.47,1.69.67,2.59.15.6-.21,1.6.2,2.02.4.3.31.75.34,1.26.03.36.17.74.16,1.06-.03.28-.03.61.32.69,1.24.29.18,1.88,1.02,2.54.38.28.48.75.36,1.18-.06.7.27,1.66.91,2.06.1.1.1.2.07.34-.94,2.9,1.7,2.75-1.81,4.96-.43.73-1.25.95-1.97.46-.38-.46-.93-.63-1.42-.98-.88-.66-.53-1.71-.84-2.63-.34-.84-.69-1.67-.78-2.59.06-.71-.3-.87-.72-1.36-.38-.61.27-1.4-.2-1.98-.58-.59-.38-1.38-.31-2.09-.35-1.7-.61-2.11-2.56-1.81-.49.13-.97,0-1.47-.03-1.05-.01-2.29.02-3.34.06-3.16-.47-2.6-.07-2.05,2.38-.08.5.34.93.32,1.4,0,.36-.35.66-.28.99.02.16.17.32.19.5.02.23-.06.47-.08.7-.09.68-.08,1.58-.26,2.25-.05.4-.57.47-.83.73-.35.28-.61.83-1.12.9-.28-.02-.43-.29-.7-.41-.56-.15-1.1-.34-1.47-.79-.28-.34-.55-.7-.8-1.06-.27-.77-.08-1.74.13-2.53-.21-.92-.51-1.84-.51-2.79-.15-.59-.22-1.24-.39-1.84-.02-.28.15-.65.09-.93-.06-.41-.6-.57-.79-.96-.21-.7-.05-1.52.36-2.15.51-.61-.1-4.83-.25-5.3-.06-.84.49-1.69.14-2.52-.27-1.12.12-2.34.12-3.5.06-.51-.04-1.04.08-1.55,1.04-1.76,3.58-1.83,3.88.23v.03Z"/>
        <path class="cls-1" d="M48.64,48.83c-.21-.59-.63-1.06-.89-1.64-.11-.21-.19-.39-.35-.58-.43-.51-.99-.94-1.28-1.56-.11-.21-.23-.44-.41-.59-.19-.17-.44-.19-.66-.32-.35-.25-.67-.49-1.1-.62-.29-.11-.56-.24-.87-.26-.2-.01-.41-.04-.6-.11-.21-.06-.38-.19-.6-.21-.27,0-.5.09-.76.08-.09,0-.18-.01-.26,0-.26.05-.36.33-.52.5-.32.31-.78.53-1.14.82-.25.17-.48.33-.61.58-.07.11-.15.22-.26.3-.14.09-.31.14-.47.2-.23.07-.44.2-.65.23-.49.03-.79.14-.95.6-.15.54-.87.73-1.11,1.21-.17.32-.05.72-.16,1.05-.07.19-.26.3-.37.47-.12.18.08.46.12.69.08.39-.1.84.16,1.2.15.2.42.27.66.31.64.16,1.26.38,1.89.13.25-.09.55-.27.79-.44.3-.23.65-.33.94-.55.33-.33.6-.73,1.01-.99.31-.24.65-.38.95-.61.34-.3.77-.54,1.04-.91.15-.23.38-.51.7-.42.24.06.39.34.58.53.21.23.52.35.76.58.24.21.4.49.55.76.22.37.6.57.92.87.27.26.5.57.85.71.72.26,2,.4,2.17-.54.02-.49.05-.98-.06-1.47v-.02Z"/>
        <path class="cls-1" d="M52.2,48.55c-.4,0-.81-.14-1.14-.34-.19-.15-.29-.36-.4-.57-.12-.22-.28-.45-.23-.72.09-.32.32-.61.4-.92.1-.35,1.95-1.69,2.23-2.28.17-.29.5-.42.69-.71.13-.2.27-.41.51-.53.37-.22.7-.3,1.09-.38.18-.05.3-.13.47-.18.24-.07.51-.08.75-.14.22-.06.42-.1.64-.07.3.06.62.14.89.28.17.12.29.25.42.38.13.16.29.28.36.48.08.2,0,.42-.05.62-.09.41-.04.91-.43,1.22-.06.04-.09.06-.13.09-.28.16-.43.41-.62.65-.41.49-1.09.61-1.66.9-.39.15-.64.48-.92.74-.46.4-1.04.74-1.57,1.08-.39.2-.89.31-1.29.4h-.02Z"/>
      </g>
    </g>
  </g>
</svg>